 
<svg width="200" height="41.28261784112173" viewBox="0 0 200 41.28261784112173" class="css-1j8o68f"><defs id="SvgjsDefs1618"></defs><g id="SvgjsG1619" featurekey="nameFeature-0" transform="matrix(0.785366461906473,0,0,0.785366461906473,-0.7773311293885133,-9.05562786744712)" fill="#e23e57"><path d="M1.4 40.08 c-0.4 0.04 -0.56 -1.36 -0.24 -1.44 c2.32 -0.6 4.12 -0.96 4.12 -3.92 l0 -17.76 c0 -2.8 -1.64 -3.36 -3.36 -3.6 c-0.32 -0.04 -0.08 -1.36 0.2 -1.36 l11.04 0 c0.28 0 0.48 1.32 0.2 1.36 c-1.68 0.2 -3.28 0.8 -3.28 3.6 l0 17.76 c0 2.28 0.96 3.12 4.28 3.12 c6.04 0 8.44 -2.76 9.4 -4.28 c0.28 -0.44 1.36 -0.24 1.36 0.44 c0 2.04 -1.72 6.08 -4.24 6.08 c-2.24 -0.12 -4.44 -0.24 -7.8 -0.24 c-3.68 0 -8.04 -0.12 -11.68 0.24 z M55.366 38.64 c0.56 0.08 0.4 1.36 -0.08 1.36 l-10.56 0 c-0.52 0 -0.56 -1.28 -0.12 -1.36 c1.48 -0.28 3.08 -0.8 1.6 -4.24 l-0.44 -1 c-0.4 -0.96 -1.08 -1.04 -2.28 -1.04 l-8.16 0 c-1.2 0 -1.88 0.08 -2.28 1.04 l-0.4 1 c-1.4 3.44 0.12 3.96 2.04 4.24 c0.52 0.08 0.4 1.36 -0.12 1.36 l-8.64 0 c-0.48 0 -0.6 -1.28 -0.12 -1.36 c1.64 -0.28 2.6 -0.84 4.08 -4.24 l6.76 -15.52 c1.56 -3.52 2.04 -5.16 2.04 -6.68 c0 -0.24 2.8 -0.88 2.92 -0.6 l9.76 22.76 c1.44 3.4 2.4 4.04 4 4.28 z M43.206 30.119999999999997 c0.56 0 1.16 -0.08 0.92 -0.64 l-4.68 -11.2 l-4.72 11.2 c-0.24 0.56 0.36 0.64 0.92 0.64 l7.56 0 z M85.892 12 c0.44 0 0.6 1.28 0.08 1.36 c-1.6 0.24 -2.64 0.88 -4.08 4.24 l-6.76 15.72 c-1.4 3.24 -2.04 5.08 -2.04 6.68 c0 0.24 -2.76 0.88 -2.88 0.6 l-9.72 -22.96 c-1.44 -3.44 -2.52 -4.04 -4.08 -4.28 c-0.52 -0.08 -0.4 -1.36 0.12 -1.36 l10.52 0 c0.52 0 0.6 1.28 0.12 1.36 c-1.48 0.24 -2.96 0.88 -1.56 4.24 l6.76 16.24 l6.76 -16.24 c1.44 -3.44 -0.16 -3.96 -2 -4.24 c-0.52 -0.08 -0.4 -1.36 0.12 -1.36 l8.64 0 z M87.058 40.08 c-0.4 0.04 -0.56 -1.36 -0.24 -1.44 c2.32 -0.6 4.12 -0.96 4.12 -3.92 l0 -17.76 c0 -2.56 -1.64 -3.24 -3.36 -3.68 c-0.32 -0.08 -0.12 -1.4 0.2 -1.36 c2.92 0.32 7.96 0.24 10.4 0.24 c3.64 0 6.28 -0.16 9.56 -0.24 c0.96 0 0.96 0.64 0.76 1.56 l-0.96 3.8 c-0.12 0.56 -1.12 0.56 -1.28 0 c-0.6 -1.96 -1.8 -3.08 -6.8 -3.08 c-2.8 0 -3.72 0.72 -3.72 2.8 l0 6.52 c0 1.04 0.52 1.24 1.32 1.24 l0.88 0 c3.24 0 6.04 -0.32 7.68 -1.8 c0.4 -0.36 1.28 -0.28 0.92 0.52 l-2.28 5.04 c-0.32 0.72 -0.92 0.64 -1.36 0.04 c-0.92 -1.28 -2.96 -1.8 -5.28 -1.8 l-0.56 0 c-0.8 0 -1.32 0.2 -1.32 1.24 l0 6.72 c0 2.28 0.96 3.12 4.28 3.12 c6.04 0 8.44 -2.76 9.4 -4.28 c0.28 -0.44 1.36 -0.24 1.36 0.44 c0 2.04 -1.72 6.08 -4.24 6.08 c-2.24 -0.12 -4.44 -0.24 -7.8 -0.24 c-3.68 0 -8.04 -0.12 -11.68 0.24 z M138.664 40.4 c-0.68 0 -1.04 -0.28 -1.48 -0.76 l-19.04 -19.92 l0 15.2 c0 2.72 1.6 3.16 3.88 3.72 c0.32 0.08 0.16 1.36 -0.24 1.36 l-9.48 0 c-0.32 0 -0.56 -1.24 -0.2 -1.36 c1.68 -0.56 3.28 -0.88 3.28 -3.72 l0 -15.52 c0 -2.84 -0.44 -4.2 -1.48 -5.6 c-0.36 -0.48 -0.72 -0.8 -0.72 -0.92 c0 -0.36 0.24 -0.88 0.8 -0.88 l2.96 0 c0.4 0 0.68 0.04 0.96 0.36 l18.64 19.72 l0 -15.04 c0 -2.84 -1.8 -3.16 -3.88 -3.68 c-0.32 -0.08 -0.16 -1.36 0.24 -1.36 l9.48 0 c0.32 0 0.52 1.28 0.2 1.36 c-1.76 0.52 -3.28 0.84 -3.28 3.68 l0 15.56 c0 2.64 0.08 5.56 0.48 7.04 c0.16 0.6 -0.48 0.76 -1.12 0.76 z M150.07 40 c-0.36 0 -0.6 -1.28 -0.28 -1.32 c2.76 -0.36 4.6 -0.92 4.6 -3.08 l0 -19.72 c0 -1 -0.36 -1.32 -1.32 -1.32 l-1.08 0 c-3.8 0 -5.92 0.88 -6.72 2.6 c-0.36 0.8 -1.72 0.68 -1.56 0 c0.36 -1.44 0.68 -2.68 0.92 -4.8 c0.08 -0.76 0.52 -0.72 1.24 -0.64 c1.84 0.2 3.52 0.28 11.12 0.28 s10.28 -0.08 12.2 -0.28 c0.72 -0.08 1.4 -0.12 1.16 0.64 c-0.6 1.88 -1 3.36 -1.24 4.8 c-0.12 0.68 -1.2 0.72 -1.36 0 c-0.4 -1.68 -2.16 -2.6 -5.6 -2.6 l-1.24 0 c-0.96 0 -1.56 0.32 -1.56 1.32 l0 19.72 c0 2.16 1.84 2.72 4.6 3.08 c0.32 0.04 0.08 1.32 -0.28 1.32 l-13.6 0 z M186.516 40.64 c-5.64 0 -11.96 -3 -11.96 -11.12 l0 -12.56 c0 -2.52 -1.28 -3.36 -3.24 -3.6 c-0.32 -0.04 -0.08 -1.36 0.24 -1.36 l10.92 0 c0.32 0 0.56 1.32 0.24 1.36 c-1.6 0.2 -3.2 0.8 -3.2 3.6 l0 12.76 c0 5.6 3.24 8.2 7.48 8.2 c4.36 0 7.84 -2.6 7.84 -8.2 l0 -12.76 c0 -2.6 -1.48 -3.32 -3.44 -3.6 c-0.28 -0.04 -0.08 -1.36 0.24 -1.36 l9 0 c0.28 0 0.52 1.32 0.2 1.36 c-1.6 0.2 -3.2 0.8 -3.2 3.6 l0 12.52 c0 7.36 -4.76 11.16 -11.12 11.16 z M231.562 39 c0.32 0 0.24 1.08 0 1.16 c-2.52 0.84 -6 0.72 -8.4 -2.36 l-6.16 -7.92 c-1.72 -2.24 -3.76 -2.56 -6.56 -2.6 l0 7.76 c0 2.8 1.92 3.28 4.48 3.6 c0.28 0.04 0.08 1.36 -0.24 1.36 l-12.12 0 c-0.32 0 -0.56 -1.32 -0.24 -1.36 c2.04 -0.28 3.32 -1.08 3.32 -3.6 l0 -17.84 c0 -2.64 -1.4 -3.4 -3.32 -3.92 c-0.32 -0.08 -0.12 -1.4 0.24 -1.36 c1.56 0.2 3.32 0.24 4.6 0.24 c2.96 0 5.72 -0.24 7.64 -0.24 c6.04 0 10.08 2.48 10.08 7.4 c0 4.64 -3.76 6.92 -7.12 7.12 l0 0.2 c1.6 0 2.76 0.68 4.52 2.88 l5.96 7.48 c1.24 1.56 2.44 2 3.32 2 z M211.602 25.439999999999998 c5.96 0 8.24 -1.04 8.24 -5.04 c0 -4.28 -2.72 -6.4 -6.28 -6.4 c-2.36 0 -3.12 0.96 -3.12 3.2 l0 8.24 l1.16 0 z M231.92800000000003 40.08 c-0.4 0.04 -0.56 -1.36 -0.24 -1.44 c2.32 -0.6 4.12 -0.96 4.12 -3.92 l0 -17.76 c0 -2.56 -1.64 -3.24 -3.36 -3.68 c-0.32 -0.08 -0.12 -1.4 0.2 -1.36 c2.92 0.32 7.96 0.24 10.4 0.24 c3.64 0 6.28 -0.16 9.56 -0.24 c0.96 0 0.96 0.64 0.76 1.56 l-0.96 3.8 c-0.12 0.56 -1.12 0.56 -1.28 0 c-0.6 -1.96 -1.8 -3.08 -6.8 -3.08 c-2.8 0 -3.72 0.72 -3.72 2.8 l0 6.52 c0 1.04 0.52 1.24 1.32 1.24 l0.88 0 c3.24 0 6.04 -0.32 7.68 -1.8 c0.4 -0.36 1.28 -0.28 0.92 0.52 l-2.28 5.04 c-0.32 0.72 -0.92 0.64 -1.36 0.04 c-0.92 -1.28 -2.96 -1.8 -5.28 -1.8 l-0.56 0 c-0.8 0 -1.32 0.2 -1.32 1.24 l0 6.72 c0 2.28 0.96 3.12 4.28 3.12 c6.04 0 8.44 -2.76 9.4 -4.28 c0.28 -0.44 1.36 -0.24 1.36 0.44 c0 2.04 -1.72 6.08 -4.24 6.08 c-2.24 -0.12 -4.44 -0.24 -7.8 -0.24 c-3.68 0 -8.04 -0.12 -11.68 0.24 z"></path></g><g id="SvgjsG1620" featurekey="sloganFeature-0" transform="matrix(0.5470326321876234,0,0,0.5470326321876234,19.457187000024415,30.330481735703422)" fill="#e23e57"><path d="M1.02 7.619999999999999 c0.02 1.18 0.02 11.2 0.02 12.02 c0 0.3 0.04 0.36 0.34 0.36 c0.68 0 0.68 0.02 1.36 0 c0.14 0 0.38 0 0.5 -0.06 c0.14 -0.06 0.06 -4.78 0.06 -5.04 c0 -0.28 0.56 -0.22 0.72 -0.22 c3.34 0 4.26 -2.4 4.26 -4.44 c0 -1.84 -0.36 -5.24 -4.52 -5.24 c-0.72 0 -1.46 0.02 -2.16 0.02 c-0.16 0 -0.36 -0.02 -0.5 0.08 c-0.16 0.12 -0.1 1.9 -0.08 2.52 z M3.32 11.74 c0 -0.44 -0.02 -3.06 0 -3.86 c0 -0.12 -0.02 -0.26 0 -0.4 c0.06 -0.22 0.32 -0.22 0.52 -0.2 c1.16 0.08 1.82 1.1 1.92 2.18 c0.08 0.78 -0.02 1.94 -0.58 2.56 c-0.4 0.42 -0.92 0.68 -1.6 0.68 c-0.14 0 -0.28 -0.16 -0.28 -0.3 c0 -0.22 0 -0.44 0.02 -0.66 z M29.265 14.08 c0 0.9 -0.02 2.68 -0.04 2.68 l0 2.72 c0 0.12 -0.02 0.32 0.04 0.44 c0.06 0.14 0.24 0.1 0.36 0.08 c0.58 -0.06 1.16 0.02 1.74 0 c0.64 -0.02 0.44 -1 0.42 -1.4 c-0.08 -0.88 0.02 -7.58 0.02 -9.98 c0 -1.08 -0.04 -3.3 -0.1 -3.4 c-0.1 -0.18 -0.36 -0.22 -0.56 -0.24 c-0.44 -0.08 -0.66 0.04 -1.32 0.04 s-0.7 0.2 -0.7 0.9 l0 0.6 c-0.02 0.48 0.06 3.84 0.06 4.38 c0 0.26 -0.02 0.28 -0.28 0.28 c-0.66 -0.02 -1.58 0.06 -2.26 0 c-0.98 -0.08 -0.76 0 -0.82 -0.9 l0 -0.12 c0 -1.28 0.16 -4.6 0.1 -4.8 c-0.1 -0.3 -0.22 -0.36 -0.48 -0.34 c-0.6 0.04 -1.22 -0.06 -1.82 -0.02 c-0.2 0.02 -0.26 0.08 -0.32 0.28 c-0.02 0.1 -0.04 0.2 -0.04 0.3 c0 0.62 0.04 1.46 0.06 2.08 l-0.06 11.86 c0 0.52 0.46 0.46 1.48 0.46 c0.94 0 1.18 0.22 1.18 -0.9 c0 -0.9 -0.06 -2.04 -0.04 -2.94 c0.02 -0.7 0 -1.38 0 -2.08 c0.02 -0.26 0.08 -0.34 0.32 -0.34 c0.88 -0.02 1.84 0 2.72 0 c0.28 0 0.34 0.04 0.34 0.36 z M46.830000000000005 7.619999999999999 c0.02 1.18 0.02 11.2 0.02 12.02 c0 0.3 0.04 0.36 0.34 0.36 c0.68 0 0.68 0.02 1.36 0 c0.14 0 0.38 0 0.5 -0.06 c0.14 -0.06 0.06 -4.78 0.06 -5.04 c0 -0.28 0.56 -0.22 0.72 -0.22 c3.34 0 4.26 -2.4 4.26 -4.44 c0 -1.84 -0.36 -5.24 -4.52 -5.24 c-0.72 0 -1.46 0.02 -2.16 0.02 c-0.16 0 -0.36 -0.02 -0.5 0.08 c-0.16 0.12 -0.1 1.9 -0.08 2.52 z M49.13 11.74 c0 -0.44 -0.02 -3.06 0 -3.86 c0 -0.12 -0.02 -0.26 0 -0.4 c0.06 -0.22 0.32 -0.22 0.52 -0.2 c1.16 0.08 1.82 1.1 1.92 2.18 c0.08 0.78 -0.02 1.94 -0.58 2.56 c-0.4 0.42 -0.92 0.68 -1.6 0.68 c-0.14 0 -0.28 -0.16 -0.28 -0.3 c0 -0.22 0 -0.44 0.02 -0.66 z M87.08 15.9 l-0.02 0 c0 0.5 -0.02 1.02 0 1.54 c0.02 0.64 0.04 1.28 0.08 1.92 c0.02 0.22 0.06 0.28 0.28 0.32 c0.4 0.1 0.82 0.12 1.24 0.12 c1.08 -0.04 1.08 -0.22 1.08 -0.96 c-0.04 -0.38 -0.02 -0.54 -0.02 -1 c0 -0.66 -0.02 -0.74 -0.02 -1.68 c0.02 -0.76 0.02 -1.74 0.02 -2.52 c0 -0.42 0.06 -0.56 0.44 -0.56 l2.92 0 c0.42 0.06 0.26 -0.22 0.26 -0.64 s0.06 -0.44 0.04 -0.86 c0 -0.2 -0.04 -0.4 -0.06 -0.6 c-0.04 -0.34 -0.16 -0.46 -0.5 -0.46 c-0.22 0 -0.02 0.02 -0.22 0.04 c-0.86 0.06 -1.68 -0.06 -2.54 0 c-0.28 0 -0.32 -0.04 -0.34 -0.3 c-0.06 -0.78 0 -1.64 0.08 -2.42 c0.04 -0.32 0.1 -0.38 0.4 -0.4 l2.82 -0.02 c0.4 -0.04 0.52 -0.02 0.48 -0.4 c-0.04 -0.58 0.04 -1.18 -0.04 -1.76 c-0.04 -0.32 -0.12 -0.38 -0.48 -0.38 c-0.6 0.02 -0.74 0.02 -1.34 0.06 c-0.6 0.02 -3.02 0.02 -3.6 0.02 c-0.82 0 -0.9 -0.06 -0.92 0.96 c-0.02 0.8 -0.02 1.62 -0.02 2.44 c0 1.4 -0.08 6.42 -0.02 7.54 z M110.965 18.5 c0 -0.52 0 -3.8 0.02 -4.06 c0.02 -0.06 0.06 -0.18 0.14 -0.18 s0.12 0.04 0.14 0.1 c0.8 1.56 1.5 3.12 2.22 4.64 c0.1 0.22 0.32 0.86 0.38 0.92 c0.08 0.12 0.22 0.08 0.34 0.08 l2.2 0.02 c0.26 0 0.32 -0.16 0.26 -0.38 c-0.16 -0.6 -1.3 -2.72 -1.56 -3.24 c-0.18 -0.4 -1.38 -2.72 -1.42 -2.9 c-0.04 -0.08 0.26 -0.22 0.3 -0.28 c0.96 -0.86 1.82 -1.74 2 -3.08 c0.2 -1.32 -0.1 -2.76 -0.96 -3.82 c-0.66 -0.78 -1.52 -1.24 -2.54 -1.3 c-0.62 -0.04 -1.22 0.02 -1.84 0 c-0.54 -0.02 -0.92 -0.02 -1.6 -0.02 c-0.32 0 -0.52 0.18 -0.54 0.52 l0 0.24 c-0.04 1.54 0 3.08 0.02 4.6 c0 2.32 -0.04 8.44 -0.04 9.32 c0 0.26 0.04 0.32 0.28 0.32 c0.14 0 0.3 0.02 0.44 0.02 c0.56 0 0.9 -0.02 1.48 -0.02 c0.44 0 0.28 -0.72 0.28 -1.5 z M110.965 10.7 l0.02 -2.02 c0.02 -0.3 -0.08 -0.9 0.2 -1.12 c0.38 -0.28 1.16 0 1.5 0.24 c1 0.68 0.92 2.36 0.38 3.3 c-0.26 0.44 -0.7 0.7 -1.2 0.84 c-0.3 0.08 -0.86 0.18 -0.88 -0.3 c0 -0.32 -0.02 -0.94 -0.02 -0.94 z M133.51000000000002 19.84 c0.06 0.02 0.24 0.02 0.42 0.02 c0.4 0 0.52 -1.44 0.56 -1.74 c0.02 -0.24 0.08 -0.26 0.28 -0.3 c1 -0.12 1.5 -0.04 2.5 -0.02 c0.22 0 0.34 0.1 0.4 0.28 l0.14 0.46 c0.12 0.34 0.22 0.76 0.34 1.1 c0.08 0.24 0.1 0.22 0.34 0.22 c0.32 0 1.48 0 1.82 -0.02 c0.46 0 0.14 -0.94 0.08 -1.1 c-0.18 -0.56 -0.22 -1.14 -0.4 -1.7 c-0.08 -0.24 -2.36 -11.06 -2.46 -11.66 c-0.14 -0.36 -0.02 -0.38 -0.34 -0.38 c-0.68 0 -1.4 0.04 -2.1 0 c-0.28 0 -0.26 0.08 -0.3 0.38 c-0.04 0.28 -0.76 3.46 -1.04 4.78 c-0.36 1.66 -0.68 3.26 -1.08 4.9 c-0.14 0.58 -1.1 4.76 -0.98 4.78 c0.06 0.04 0.16 0.02 0.24 0.02 c0.5 0 0.96 0 1.58 -0.02 z M136.13000000000002 15.3 l-0.42 0 c-0.56 0 -0.58 0 -0.44 -0.58 c0.1 -0.44 0.64 -2.82 0.76 -3.4 c0.02 -0.04 0.06 -0.08 0.08 -0.08 c0.04 0 0.08 0.04 0.1 0.06 c0.08 0.24 0.16 0.84 0.24 1.08 c0.18 0.76 0.3 1.4 0.48 2.22 c0.18 0.72 0.1 0.72 -0.26 0.72 c-0.18 0 -0.36 -0.02 -0.54 -0.02 z M158.43500000000003 5.02 c-0.2 0 -0.4 0.02 -0.6 0.02 c-0.3 0 -0.66 -0.06 -0.72 0.34 c-0.2 1.7 -0.38 3.58 -0.58 5.28 c-0.34 2.8 -0.66 5.68 -0.98 8.48 c-0.04 0.38 -0.08 0.74 0.34 0.82 c0.64 0.04 1.12 0.04 1.66 0.02 c0.2 0.02 0.42 0.04 0.48 -0.2 c0.04 -0.1 0.04 -0.2 0.04 -0.3 c0.04 -0.46 0.64 -6.22 0.88 -6.22 c0.38 0 1.38 4.68 1.86 6.4 c0.06 0.24 0.18 0.34 0.42 0.32 c0.5 -0.04 0.98 0 1.48 0 s0.4 -0.32 0.5 -0.74 c0.12 -0.46 1.28 -6 1.56 -6 c0.32 0 0.98 6.42 1.04 6.56 c0.12 0.28 0.46 0.16 0.7 0.16 c0.36 0 0.7 0.04 1.16 0 c0.34 -0.04 0.68 0.08 0.7 -0.36 c0 -0.1 -0.04 -0.2 -0.06 -0.3 c-0.08 -0.5 -0.18 -1.1 -0.28 -1.6 c-0.14 -1.04 -0.34 -2.06 -0.48 -3.1 c-0.2 -1.64 -0.4 -3.28 -0.58 -4.92 c-0.14 -1.4 -0.34 -2.98 -0.46 -4.38 c-0.04 -0.46 -0.56 -0.3 -0.88 -0.3 l-1.38 0 c-0.22 0 -0.32 0.42 -0.36 0.64 c-0.12 0.56 -1.5 7.78 -1.96 7.78 s-1.94 -6.6 -2.2 -8.04 c-0.06 -0.32 -0.28 -0.42 -0.58 -0.42 z M183.38000000000002 15.9 l-0.02 0 c0 0.5 -0.02 1.02 0 1.54 c0.02 0.64 0.06 1.28 0.1 1.92 c0 0.22 0.06 0.28 0.26 0.32 c0.42 0.1 0.82 0.12 1.24 0.12 c1.08 -0.04 2.16 0.04 3.24 0 c0.44 -0.02 0.64 0.02 1.08 -0.06 c0.4 -0.08 0.54 -0.3 0.54 -0.9 c-0.04 -0.38 -0.02 -0.54 -0.02 -1 c0 -0.66 -0.46 -0.88 -0.86 -0.86 c-0.28 0.02 -1.62 -0.02 -2.16 -0.02 c-0.9 0.02 -0.76 0.14 -0.76 -0.8 c0 -0.76 0.02 -1.74 0.02 -2.52 c0 -0.42 0.04 -0.56 0.44 -0.56 l2.5 0 c0.4 0.06 0.68 -0.22 0.68 -0.64 s0.04 -0.44 0.04 -0.86 l-0.06 -0.6 c-0.04 -0.34 -0.16 -0.46 -0.5 -0.46 c-0.22 0 -0.44 0.02 -0.66 0.04 c-0.86 0.06 -1.26 -0.06 -2.1 0 c-0.28 0 -0.32 -0.04 -0.34 -0.3 c-0.08 -0.78 0 -1.64 0.08 -2.42 c0.02 -0.32 0.1 -0.38 0.4 -0.4 l2.82 -0.02 c0.38 -0.04 0.5 -0.02 0.48 -0.4 c-0.04 -0.58 0.02 -1.18 -0.04 -1.76 c-0.04 -0.32 -0.14 -0.38 -0.5 -0.38 c-0.6 0.02 -0.74 0.02 -1.34 0.06 c-0.6 0.02 -3 0.02 -3.58 0.02 c-0.84 0 -0.9 -0.06 -0.92 0.96 c-0.04 0.8 -0.02 1.62 -0.02 2.44 c0 1.4 -0.08 6.42 -0.04 7.54 z M205.625 4.98 c-0.02 0 -0.18 -0.02 -0.34 -0.02 c-0.28 0 -0.42 0.1 -0.46 0.36 c-0.02 0.14 -0.02 0.3 0.02 0.42 c0.16 0.62 3.26 13.44 3.42 14 c0.06 0.24 0.08 0.24 0.32 0.24 l1.62 0 l0.12 0 c0.26 0 0.28 -0.36 0.34 -0.7 c0.4 -2.06 0.9 -4.1 1.38 -6.08 c0.02 -0.12 0.06 -0.24 0.1 -0.34 c0.02 -0.04 0.06 -0.06 0.08 -0.06 c0.04 0 0.08 0.02 0.1 0.06 c0.1 0.24 1.3 5.92 1.54 6.9 c0.04 0.12 0.1 0.22 0.26 0.22 l1.6 0 c0.3 0 0.5 -0.16 0.56 -0.46 c0.26 -1.32 0.6 -2.8 0.92 -4.1 c0.4 -1.6 0.82 -3.18 1.24 -4.78 c0.32 -1.28 0.66 -2.68 1.06 -3.94 c0.14 -0.42 0.66 -1.68 -0.22 -1.68 c-0.44 0 -0.82 -0.04 -1.26 -0.02 c-0.14 0 -0.28 0 -0.42 0.02 c-0.22 0 -0.38 0.12 -0.46 0.32 c-0.06 0.2 -0.16 0.42 -0.22 0.62 c-0.3 1.28 -0.58 2.74 -0.94 4 c-0.26 0.94 -0.54 1.86 -0.76 2.8 c0 0.02 -0.08 0.32 -0.16 0.32 c-0.14 0 -0.18 -0.22 -0.22 -0.42 c-0.02 -0.08 -1.02 -5.82 -1.16 -6.94 c-0.04 -0.44 -0.18 -0.7 -0.64 -0.72 l-0.24 0 c-0.52 0.04 -0.8 -0.02 -1.32 0.02 c-0.42 0.02 -0.48 0.06 -0.58 0.44 c-0.02 0.08 -0.02 0.18 -0.04 0.28 c-0.16 0.88 -1.2 6.56 -1.34 7.24 c0 0.04 -0.02 0.12 -0.08 0.12 c-0.08 0 -0.1 -0.1 -0.12 -0.14 c-0.02 -0.08 -1.76 -7.42 -1.82 -7.6 c-0.08 -0.24 -0.26 -0.38 -0.54 -0.38 c-0.44 0.02 -0.78 0 -1.34 0 z M245.31 8.68 c0.42 1.24 0.52 2.58 0.52 3.9 c0 1.1 -0.2 2.16 -0.48 3.22 c-0.36 1.26 -0.96 2.4 -2.04 3.14 c-0.8 0.58 -1.64 0.96 -2.62 1.06 c-0.14 0 -0.26 0.02 -0.4 0.02 c-0.12 0 -0.24 -0.02 -0.38 -0.02 c-0.98 -0.1 -1.82 -0.48 -2.64 -1.06 c-1.06 -0.74 -1.68 -1.88 -2.02 -3.14 c-0.3 -1.06 -0.48 -2.12 -0.48 -3.22 c0 -1.32 0.1 -2.66 0.52 -3.9 c0.74 -2.14 2.78 -3.66 5 -3.7 c2.22 0.04 4.26 1.56 5.02 3.7 z M243.37 14.04 c0.2 -1.22 0.12 -2.46 -0.12 -3.68 c-0.24 -1.1 -0.72 -2.18 -1.64 -2.84 c-0.16 -0.12 -0.34 -0.22 -0.52 -0.28 c-0.26 -0.12 -0.54 -0.16 -0.8 -0.16 s-0.52 0.04 -0.78 0.16 c-0.2 0.06 -0.36 0.16 -0.52 0.28 c-0.94 0.66 -1.42 1.74 -1.64 2.84 c-0.24 1.22 -0.32 2.46 -0.12 3.68 c0.2 1.1 0.6 2.58 1.64 3.14 c0.44 0.24 0.92 0.4 1.42 0.42 c0.5 -0.02 1 -0.18 1.44 -0.42 c1.04 -0.56 1.44 -2.04 1.64 -3.14 z M263.295 18.5 c0 -0.52 0 -3.8 0.02 -4.06 c0.02 -0.06 0.06 -0.18 0.14 -0.18 s0.12 0.04 0.14 0.1 c0.8 1.56 1.5 3.12 2.22 4.64 c0.1 0.22 0.32 0.86 0.38 0.92 c0.08 0.12 0.22 0.08 0.34 0.08 l2.2 0.02 c0.26 0 0.32 -0.16 0.26 -0.38 c-0.16 -0.6 -1.3 -2.72 -1.56 -3.24 c-0.18 -0.4 -1.38 -2.72 -1.42 -2.9 c-0.04 -0.08 0.26 -0.22 0.3 -0.28 c0.96 -0.86 1.82 -1.74 2 -3.08 c0.2 -1.32 -0.1 -2.76 -0.96 -3.82 c-0.66 -0.78 -1.52 -1.24 -2.54 -1.3 c-0.62 -0.04 -1.22 0.02 -1.84 0 c-0.54 -0.02 -0.92 -0.02 -1.6 -0.02 c-0.32 0 -0.52 0.18 -0.54 0.52 l0 0.24 c-0.04 1.54 0 3.08 0.02 4.6 c0 2.32 -0.04 8.44 -0.04 9.32 c0 0.26 0.04 0.32 0.28 0.32 c0.14 0 0.3 0.02 0.44 0.02 c0.56 0 0.9 -0.02 1.48 -0.02 c0.44 0 0.28 -0.72 0.28 -1.5 z M263.295 10.7 l0.02 -2.02 c0.02 -0.3 -0.08 -0.9 0.2 -1.12 c0.38 -0.28 1.16 0 1.5 0.24 c1 0.68 0.92 2.36 0.38 3.3 c-0.26 0.44 -0.7 0.7 -1.2 0.84 c-0.3 0.08 -0.86 0.18 -0.88 -0.3 c0 -0.32 -0.02 -0.94 -0.02 -0.94 z M286.72 16.38 c0 -0.7 -0.1 -2.6 -0.08 -3 c0 -0.06 0.04 -0.14 0.06 -0.14 c0.04 0 0.12 0.04 0.14 0.06 c0.64 0.84 3.64 6.66 4 6.68 c0.1 0.02 0.2 0.02 0.3 0.02 c0.68 -0.04 1.28 0 1.96 0 c0.7 0 0.24 -0.68 0.12 -0.86 c-0.18 -0.26 -2.56 -4.52 -2.7 -4.78 c-0.4 -0.68 -0.74 -1.42 -1.14 -2.08 c-0.04 -0.08 -0.08 -0.2 -0.06 -0.28 c0.04 -0.24 0.1 -0.46 0.2 -0.68 c0.48 -0.94 0.98 -1.9 1.56 -2.8 c0.64 -1.02 1 -1.66 1.52 -2.58 c0.12 -0.22 0.2 -0.46 0.28 -0.72 c0.02 -0.1 -0.06 -0.2 -0.18 -0.2 c-0.38 -0.02 -1.76 0 -2.2 0 c-0.2 0 -0.4 0.04 -0.5 0.22 c-0.26 0.5 -2.94 5.4 -3.2 5.84 c-0.02 0.04 -0.08 0.06 -0.14 0.06 c0 0 -0.04 -0.06 -0.04 -0.1 c-0.02 -1.12 0.18 -4.78 0.14 -5.52 c-0.02 -0.44 -0.1 -0.48 -0.54 -0.5 c-0.48 -0.02 -1.14 -0.02 -1.62 -0.02 c-0.44 0 -0.48 0.24 -0.54 0.56 c-0.02 0.06 -0.02 1.94 -0.02 2.78 c0 1.22 -0.1 8.86 0.04 11.28 c0 0.24 0.06 0.38 0.26 0.38 c0.54 -0.04 1.34 0 1.88 0 c0.38 0 0.44 -0.04 0.44 -0.68 c0 -0.86 0.08 -1.64 0.08 -2.7 c0 -0.08 -0.02 -0.16 -0.02 -0.24 z"></path></g></svg>
